<mxfile host="65bd71144e">
    <diagram id="rN15QDHdvi2L_zLYxsMZ" name="Страница 1">
        <mxGraphModel dx="1020" dy="509" grid="1" gridSize="10" guides="1" tooltips="1" connect="1" arrows="1" fold="1" page="1" pageScale="1" pageWidth="1169" pageHeight="827" background="none" math="0" shadow="0">
            <root>
                <mxCell id="0"/>
                <mxCell id="1" parent="0"/>
                <mxCell id="VPhSZCFX2kQXGPaclEwB-13" style="edgeStyle=orthogonalEdgeStyle;rounded=1;orthogonalLoop=1;jettySize=auto;html=1;entryX=0.5;entryY=0;entryDx=0;entryDy=0;fontSize=14;fontColor=#000000;" parent="1" source="VPhSZCFX2kQXGPaclEwB-1" target="VPhSZCFX2kQXGPaclEwB-9" edge="1">
                    <mxGeometry relative="1" as="geometry"/>
                </mxCell>
                <mxCell id="VPhSZCFX2kQXGPaclEwB-1" value="START&lt;br&gt;FindТheЕlementsАrray" style="ellipse;whiteSpace=wrap;html=1;direction=west;flipV=0;rounded=1;fillColor=#dae8fc;strokeColor=#6c8ebf;fontColor=#000000;" parent="1" vertex="1">
                    <mxGeometry x="500" y="10" width="140" height="90" as="geometry"/>
                </mxCell>
                <mxCell id="VPhSZCFX2kQXGPaclEwB-2" value="FINISH" style="ellipse;whiteSpace=wrap;html=1;rounded=1;fillColor=#dae8fc;strokeColor=#6c8ebf;fontColor=#000000;" parent="1" vertex="1">
                    <mxGeometry x="770" y="315" width="120" height="80" as="geometry"/>
                </mxCell>
                <mxCell id="VPhSZCFX2kQXGPaclEwB-15" style="edgeStyle=orthogonalEdgeStyle;rounded=1;orthogonalLoop=1;jettySize=auto;html=1;entryX=0.5;entryY=0;entryDx=0;entryDy=0;fontSize=14;fontColor=#000000;" parent="1" source="VPhSZCFX2kQXGPaclEwB-4" target="VPhSZCFX2kQXGPaclEwB-5" edge="1">
                    <mxGeometry relative="1" as="geometry"/>
                </mxCell>
                <mxCell id="VPhSZCFX2kQXGPaclEwB-18" style="edgeStyle=orthogonalEdgeStyle;rounded=1;orthogonalLoop=1;jettySize=auto;html=1;entryX=0;entryY=0.5;entryDx=0;entryDy=0;fontSize=14;fontColor=#000000;" parent="1" source="VPhSZCFX2kQXGPaclEwB-4" target="VPhSZCFX2kQXGPaclEwB-2" edge="1">
                    <mxGeometry relative="1" as="geometry"/>
                </mxCell>
                <mxCell id="VPhSZCFX2kQXGPaclEwB-4" value="i &amp;lt; arrayToFind.Length" style="rhombus;whiteSpace=wrap;html=1;rounded=1;fillColor=#fff2cc;strokeColor=#d6b656;fontColor=#000000;" parent="1" vertex="1">
                    <mxGeometry x="490" y="290" width="160" height="130" as="geometry"/>
                </mxCell>
                <mxCell id="VPhSZCFX2kQXGPaclEwB-16" style="edgeStyle=orthogonalEdgeStyle;rounded=1;orthogonalLoop=1;jettySize=auto;html=1;entryX=0.5;entryY=0;entryDx=0;entryDy=0;fontSize=14;fontColor=#000000;" parent="1" source="VPhSZCFX2kQXGPaclEwB-5" target="VPhSZCFX2kQXGPaclEwB-12" edge="1">
                    <mxGeometry relative="1" as="geometry"/>
                </mxCell>
                <mxCell id="VPhSZCFX2kQXGPaclEwB-20" style="edgeStyle=orthogonalEdgeStyle;rounded=1;orthogonalLoop=1;jettySize=auto;html=1;fontSize=14;fontColor=#000000;" parent="1" source="VPhSZCFX2kQXGPaclEwB-5" edge="1">
                    <mxGeometry relative="1" as="geometry">
                        <mxPoint x="360" y="390" as="targetPoint"/>
                    </mxGeometry>
                </mxCell>
                <mxCell id="VPhSZCFX2kQXGPaclEwB-5" value="arrayToFind[i].Length &amp;lt; 4" style="rhombus;whiteSpace=wrap;html=1;rounded=1;fillColor=#fff2cc;strokeColor=#d6b656;fontColor=#000000;" parent="1" vertex="1">
                    <mxGeometry x="455" y="470" width="230" height="120" as="geometry"/>
                </mxCell>
                <mxCell id="VPhSZCFX2kQXGPaclEwB-14" style="edgeStyle=orthogonalEdgeStyle;rounded=1;orthogonalLoop=1;jettySize=auto;html=1;fontSize=14;fontColor=#000000;" parent="1" source="VPhSZCFX2kQXGPaclEwB-9" target="VPhSZCFX2kQXGPaclEwB-4" edge="1">
                    <mxGeometry relative="1" as="geometry"/>
                </mxCell>
                <mxCell id="VPhSZCFX2kQXGPaclEwB-9" value="&lt;span style=&quot;font-size: 12px;&quot;&gt;arrayToFind [ ]&amp;nbsp; - исходный массив&lt;br&gt;&lt;/span&gt;&lt;span style=&quot;font-size: 12px;&quot;&gt;ResArray [ ]&amp;nbsp; - результирующий массив&lt;br&gt;&lt;/span&gt;&lt;span style=&quot;font-size: 12px;&quot;&gt;arrayToFind.Length - длина исходного массива&lt;br&gt;&lt;/span&gt;&lt;span style=&quot;font-size: 12px;&quot;&gt;i=0 - счетчик&lt;/span&gt;&lt;br style=&quot;font-size: 12px;&quot;&gt;&lt;span style=&quot;font-size: 12px;&quot;&gt;count = 0&amp;nbsp; - счетчик&lt;/span&gt;" style="rounded=1;whiteSpace=wrap;html=1;fontSize=14;fillColor=#f8cecc;strokeColor=#b85450;fontColor=#000000;" parent="1" vertex="1">
                    <mxGeometry x="465" y="130" width="210" height="130" as="geometry"/>
                </mxCell>
                <mxCell id="VPhSZCFX2kQXGPaclEwB-27" style="edgeStyle=orthogonalEdgeStyle;rounded=1;orthogonalLoop=1;jettySize=auto;html=1;fontSize=14;fontColor=#000000;" parent="1" source="VPhSZCFX2kQXGPaclEwB-10" edge="1">
                    <mxGeometry relative="1" as="geometry">
                        <mxPoint x="290" y="360" as="targetPoint"/>
                        <Array as="points">
                            <mxPoint x="270" y="760"/>
                            <mxPoint x="270" y="360"/>
                        </Array>
                    </mxGeometry>
                </mxCell>
                <mxCell id="VPhSZCFX2kQXGPaclEwB-10" value="count = count +1" style="rounded=1;whiteSpace=wrap;html=1;fontSize=14;fillColor=#d5e8d4;strokeColor=#82b366;fontColor=#000000;" parent="1" vertex="1">
                    <mxGeometry x="510" y="730" width="120" height="60" as="geometry"/>
                </mxCell>
                <mxCell id="VPhSZCFX2kQXGPaclEwB-19" style="edgeStyle=orthogonalEdgeStyle;rounded=1;orthogonalLoop=1;jettySize=auto;html=1;fontSize=14;fontColor=#000000;" parent="1" source="VPhSZCFX2kQXGPaclEwB-11" target="VPhSZCFX2kQXGPaclEwB-4" edge="1">
                    <mxGeometry relative="1" as="geometry"/>
                </mxCell>
                <mxCell id="VPhSZCFX2kQXGPaclEwB-11" value="i = i +1" style="rounded=1;whiteSpace=wrap;html=1;fontSize=14;fillColor=#d5e8d4;strokeColor=#82b366;fontColor=#000000;" parent="1" vertex="1">
                    <mxGeometry x="290" y="325" width="130" height="60" as="geometry"/>
                </mxCell>
                <mxCell id="VPhSZCFX2kQXGPaclEwB-17" style="edgeStyle=orthogonalEdgeStyle;rounded=1;orthogonalLoop=1;jettySize=auto;html=1;entryX=0.5;entryY=0;entryDx=0;entryDy=0;fontSize=14;fontColor=#000000;" parent="1" source="VPhSZCFX2kQXGPaclEwB-12" target="VPhSZCFX2kQXGPaclEwB-10" edge="1">
                    <mxGeometry relative="1" as="geometry"/>
                </mxCell>
                <mxCell id="VPhSZCFX2kQXGPaclEwB-12" value="&lt;span style=&quot;font-size: 12px;&quot;&gt;ResArray[count] = arrayToFind[i]&lt;/span&gt;" style="rounded=1;whiteSpace=wrap;html=1;fontSize=14;fillColor=#d5e8d4;strokeColor=#82b366;fontColor=#000000;" parent="1" vertex="1">
                    <mxGeometry x="470" y="630" width="200" height="60" as="geometry"/>
                </mxCell>
                <mxCell id="VPhSZCFX2kQXGPaclEwB-22" value="YES" style="text;html=1;align=center;verticalAlign=middle;resizable=0;points=[];autosize=1;strokeColor=none;fillColor=none;fontSize=14;rounded=1;fontColor=#FFFFFF;labelBackgroundColor=none;" parent="1" vertex="1">
                    <mxGeometry x="520" y="430" width="50" height="30" as="geometry"/>
                </mxCell>
                <mxCell id="VPhSZCFX2kQXGPaclEwB-23" value="NO" style="text;html=1;align=center;verticalAlign=middle;resizable=0;points=[];autosize=1;strokeColor=none;fillColor=none;fontSize=14;rounded=1;fontColor=#FFFFFF;labelBackgroundColor=none;" parent="1" vertex="1">
                    <mxGeometry x="685" y="325" width="40" height="30" as="geometry"/>
                </mxCell>
                <mxCell id="VPhSZCFX2kQXGPaclEwB-25" value="YES" style="text;html=1;align=center;verticalAlign=middle;resizable=0;points=[];autosize=1;strokeColor=none;fillColor=none;fontSize=14;rounded=1;fontColor=default;" parent="1" vertex="1">
                    <mxGeometry x="520" y="590" width="50" height="30" as="geometry"/>
                </mxCell>
                <mxCell id="VPhSZCFX2kQXGPaclEwB-26" value="NO" style="text;html=1;align=center;verticalAlign=middle;resizable=0;points=[];autosize=1;strokeColor=none;fillColor=none;fontSize=14;rounded=1;fontColor=#FFFFFF;" parent="1" vertex="1">
                    <mxGeometry x="390" y="490" width="40" height="30" as="geometry"/>
                </mxCell>
            </root>
        </mxGraphModel>
    </diagram>
</mxfile>